<svg width="611.1px" height="127.5px" xmlns="http://www.w3.org/2000/svg" viewBox="-55.530010986328136 11.240000915527347 611.0600219726563 127.5199981689453" style="background: rgb(255, 255, 255)" preserveAspectRatio="xMidYMid"><defs><filter id="editing-hover" x="-100%" y="-100%" width="300%" height="300%"><feFlood flood-color="#000000" result="flood"></feFlood><feComposite operator="in" in2="SourceAlpha" in="flood" result="shadow"></feComposite><feOffset dx="0" dy="-1.3" in="SourceGraphic" result="offset-1"></feOffset><feOffset dx="0" dy="1.3" in="shadow" result="offset-2"></feOffset><feMerge><feMergeNode in="offset-2"></feMergeNode><feMergeNode in="offset-1"></feMergeNode></feMerge></filter></defs><g filter="url(#editing-hover)"><g transform="matrix(1.2,0,0,1.6,-6.9,204.7)"><path d="M -307.9 -59.3 L -307.9 -109.7 L -301.7 -109.7 L -301.7 -59.3 L -307.9 -59.3 Z M -246.8 -85.7 L -246.8 -85.7 L -246.8 -59.3 L -252.7 -59.3 L -252.7 -86.5 L -252.7 -86.5 Q -252.7 -90 -253.8 -91.4 L -253.8 -91.4 L -253.8 -91.4 Q -254.8 -92.9 -258.5 -92.9 L -258.5 -92.9 L -258.5 -92.9 Q -262.2 -92.9 -263.5 -91.3 L -263.5 -91.3 L -263.5 -91.3 Q -264.8 -89.6 -264.8 -86.6 L -264.8 -86.6 L -264.8 -59.3 L -270.7 -59.3 L -270.7 -86.5 L -270.7 -86.5 Q -270.7 -90 -271.8 -91.4 L -271.8 -91.4 L -271.8 -91.4 Q -272.8 -92.9 -276.5 -92.9 L -276.5 -92.9 L -276.5 -92.9 Q -280.2 -92.9 -281.5 -91.3 L -281.5 -91.3 L -281.5 -91.3 Q -282.8 -89.6 -282.8 -86.6 L -282.8 -86.6 L -282.8 -59.3 L -288.7 -59.3 L -288.7 -96.8 L -285.5 -96.8 L -284.6 -93.2 L -284.6 -93.2 Q -283.3 -95.2 -281.2 -96.2 L -281.2 -96.2 L -281.2 -96.2 Q -279.2 -97.3 -277.8 -97.4 L -277.8 -97.4 L -277.8 -97.4 Q -276.4 -97.6 -274.3 -97.6 L -274.3 -97.6 L -274.3 -97.6 Q -268.4 -97.6 -266.3 -93.6 L -266.3 -93.6 L -266.3 -93.6 Q -263.4 -97.6 -256.3 -97.6 L -256.3 -97.6 L -256.3 -97.6 Q -250.3 -97.6 -248.4 -93.9 L -248.4 -93.9 L -248.4 -93.9 Q -246.8 -90.7 -246.8 -85.7 Z M -211.1 -86.3 L -211.1 -59.3 L -214.3 -59.3 L -215.2 -62.9 L -215.2 -62.9 Q -217 -60.9 -219.1 -59.9 L -219.1 -59.9 L -219.1 -59.9 Q -221.3 -58.8 -222.7 -58.6 L -222.7 -58.6 L -222.7 -58.6 Q -224.2 -58.5 -226.8 -58.5 L -226.8 -58.5 L -226.8 -58.5 Q -229.4 -58.5 -231.4 -59.4 L -231.4 -59.4 L -231.4 -59.4 Q -233.4 -60.3 -234.5 -62.2 L -234.5 -62.2 L -234.5 -62.2 Q -236 -65.2 -236 -70.3 L -236 -70.3 L -236 -70.3 Q -236 -76.8 -232.3 -78.8 L -232.3 -78.8 L -232.3 -78.8 Q -230.8 -79.5 -229.6 -79.9 L -229.6 -79.9 L -229.6 -79.9 Q -228.4 -80.3 -226 -80.6 L -226 -80.6 L -226 -80.6 Q -223.6 -80.8 -221.9 -80.8 L -221.9 -80.8 L -221.9 -80.8 Q -220.2 -80.9 -217 -80.9 L -217 -80.9 L -217 -86.3 L -217 -86.3 Q -217 -90.1 -218.5 -91.4 L -218.5 -91.4 L -218.5 -91.4 Q -220.1 -92.7 -224.3 -92.7 L -224.3 -92.7 L -224.3 -92.7 Q -228.5 -92.7 -233.4 -91.1 L -233.4 -91.1 L -234.5 -94.7 L -234.5 -94.7 Q -228.9 -97.5 -222.6 -97.5 L -222.6 -97.5 L -222.6 -97.5 Q -215.2 -97.5 -213 -94.5 L -213 -94.5 L -213 -94.5 Q -211.8 -92.8 -211.5 -91 L -211.5 -91 L -211.5 -91 Q -211.1 -89.2 -211.1 -86.3 L -211.1 -86.3 Z M -217 -69.4 L -217 -69.4 L -217 -76.8 L -217 -76.8 Q -224.3 -76.8 -225.7 -76.3 L -225.7 -76.3 L -225.7 -76.3 Q -227.1 -75.7 -228.2 -75.2 L -228.2 -75.2 L -228.2 -75.2 Q -230.1 -74.2 -230.1 -71.2 L -230.1 -71.2 L -230.1 -69.5 L -230.1 -69.5 Q -230.1 -66 -229.1 -64.6 L -229.1 -64.6 L -229.1 -64.6 Q -228 -63.1 -223.9 -63.1 L -223.9 -63.1 L -223.9 -63.1 Q -219.8 -63.1 -218.4 -64.8 L -218.4 -64.8 L -218.4 -64.8 Q -217 -66.4 -217 -69.4 Z M -180.7 -70.9 L -180.7 -70.9 L -180.7 -92.1 L -180.7 -92.1 Q -184.6 -92.9 -188.1 -92.9 L -188.1 -92.9 L -188.1 -92.9 Q -191.5 -92.9 -192.7 -91.5 L -192.7 -91.5 L -192.7 -91.5 Q -193.8 -90.1 -193.8 -86.1 L -193.8 -86.1 L -193.8 -71.1 L -193.8 -71.1 Q -193.8 -67.5 -192.8 -66.1 L -192.8 -66.1 L -192.8 -66.1 Q -191.7 -64.7 -187.6 -64.7 L -187.6 -64.7 L -187.6 -64.7 Q -183.6 -64.7 -182.1 -66.3 L -182.1 -66.3 L -182.1 -66.3 Q -180.7 -67.9 -180.7 -70.9 Z M -180.3 -56.5 L -180.3 -56.5 L -180.3 -62.9 L -180.3 -62.9 Q -183.3 -60 -189.7 -60 L -189.7 -60 L -189.7 -60 Q -196.1 -60 -198 -64.1 L -198 -64.1 L -198 -64.1 Q -199.9 -68.3 -199.9 -78 L -199.9 -78 L -199.9 -78 Q -199.9 -88 -198.8 -90.9 L -198.8 -90.9 L -198.8 -90.9 Q -197.4 -94.7 -195.3 -95.9 L -195.3 -95.9 L -195.3 -95.9 Q -192 -97.6 -186.8 -97.6 L -186.8 -97.6 L -186.8 -97.6 Q -181.5 -97.6 -174.4 -95.5 L -174.4 -95.5 L -174.4 -56.7 L -174.4 -56.7 Q -174.4 -53.9 -174.8 -52 L -174.8 -52 L -174.8 -52 Q -175.2 -50.2 -176.4 -48.5 L -176.4 -48.5 L -176.4 -48.5 Q -178.6 -45.4 -185.4 -45.4 L -185.4 -45.4 L -185.4 -45.4 Q -192.3 -45.4 -197.9 -48.1 L -197.9 -48.1 L -196.7 -51.7 L -196.7 -51.7 Q -191.8 -50.1 -187.7 -50.1 L -187.7 -50.1 L -187.7 -50.1 Q -183.5 -50.1 -181.9 -51.4 L -181.9 -51.4 L -181.9 -51.4 Q -180.3 -52.8 -180.3 -56.5 Z M -156.6 -86.5 L -156.6 -86.5 L -156.6 -79.1 L -156.6 -79.1 Q -149.2 -79.1 -147.8 -79.7 L -147.8 -79.7 L -147.8 -79.7 Q -146.4 -80.2 -145.3 -80.8 L -145.3 -80.8 L -145.3 -80.8 Q -143.4 -81.8 -143.4 -84.7 L -143.4 -84.7 L -143.4 -86.4 L -143.4 -86.4 Q -143.4 -89.9 -144.5 -91.4 L -144.5 -91.4 L -144.5 -91.4 Q -145.5 -92.8 -149.6 -92.8 L -149.6 -92.8 L -149.6 -92.8 Q -153.7 -92.8 -155.1 -91.2 L -155.1 -91.2 L -155.1 -91.2 Q -156.6 -89.6 -156.6 -86.5 Z M -155.9 -96.7 L -155.9 -96.7 L -155.9 -96.7 Q -154.7 -97.2 -153.1 -97.4 L -153.1 -97.4 L -153.1 -97.4 Q -151.5 -97.6 -148.6 -97.6 L -148.6 -97.6 L -148.6 -97.6 Q -145.7 -97.6 -143.2 -96.8 L -143.2 -96.8 L -143.2 -96.8 Q -140.6 -96 -139.5 -94.3 L -139.5 -94.3 L -139.5 -94.3 Q -138.3 -92.6 -137.9 -90.8 L -137.9 -90.8 L -137.9 -90.8 Q -137.5 -89.1 -137.5 -86.8 L -137.5 -86.8 L -137.5 -86.8 Q -137.5 -84.5 -137.8 -83 L -137.8 -83 L -137.8 -83 Q -138 -81.6 -138.4 -80.5 L -138.4 -80.5 L -138.4 -80.5 Q -138.8 -79.4 -139.7 -78.6 L -139.7 -78.6 L -139.7 -78.6 Q -140.6 -77.8 -141.4 -77.2 L -141.4 -77.2 L -141.4 -77.2 Q -142.2 -76.6 -143.6 -76.2 L -143.6 -76.2 L -143.6 -76.2 Q -145.1 -75.8 -146.2 -75.6 L -146.2 -75.6 L -146.2 -75.6 Q -147.3 -75.4 -149.3 -75.2 L -149.3 -75.2 L -149.3 -75.2 Q -152.3 -75 -156.6 -75 L -156.6 -75 L -156.6 -69.6 L -156.6 -69.6 Q -156.6 -65.9 -155 -64.5 L -155 -64.5 L -155 -64.5 Q -153.4 -63.2 -150.1 -63.2 L -150.1 -63.2 L -150.1 -63.2 Q -144.2 -63.2 -139.4 -65.2 L -139.4 -65.2 L -138.3 -61.6 L -138.3 -61.6 Q -143.7 -58.5 -150.2 -58.5 L -150.2 -58.5 L -150.2 -58.5 Q -153.7 -58.5 -155.8 -59.2 L -155.8 -59.2 L -155.8 -59.2 Q -157.9 -60 -158.8 -60.9 L -158.8 -60.9 L -158.8 -60.9 Q -159.7 -61.8 -160.4 -62.6 L -160.4 -62.6 L -160.4 -62.6 Q -161 -63.4 -161.4 -64.9 L -161.4 -64.9 L -161.4 -64.9 Q -161.8 -66.5 -162 -67.6 L -162 -67.6 L -162 -67.6 Q -162.2 -68.7 -162.3 -70.7 L -162.3 -70.7 L -162.3 -70.7 Q -162.5 -74.2 -162.5 -77.2 L -162.5 -77.2 L -162.5 -81.5 L -162.5 -81.5 Q -162.5 -85.3 -162.2 -87 L -162.2 -87 L -162.2 -87 Q -162 -88.6 -161.7 -90.1 L -161.7 -90.1 L -161.7 -90.1 Q -161.4 -91.6 -160.9 -92.3 L -160.9 -92.3 L -160.9 -92.3 Q -160.4 -93.1 -159.7 -94.1 L -159.7 -94.1 L -159.7 -94.1 Q -159 -95.1 -158 -95.6 L -158 -95.6 L -158 -95.6 Q -157.1 -96.1 -155.9 -96.7 Z M -113.3 -80.2 L -113.3 -80.2 Q -109.4 -79.7 -107.6 -77.3 L -107.6 -77.3 L -107.6 -77.3 Q -105.7 -74.9 -105.7 -69.7 L -105.7 -69.7 L -105.7 -69.7 Q -105.7 -64.5 -108.5 -61.5 L -108.5 -61.5 L -108.5 -61.5 Q -111.3 -58.5 -117.8 -58.5 L -117.8 -58.5 L -117.8 -58.5 Q -124.3 -58.5 -129.2 -60.8 L -129.2 -60.8 L -128 -64.4 L -128 -64.4 Q -121.6 -63.2 -118 -63.2 L -118 -63.2 L -118 -63.2 Q -114.5 -63.2 -113 -64.6 L -113 -64.6 L -113 -64.6 Q -111.5 -66 -111.5 -68.9 L -111.5 -68.9 L -111.5 -68.9 Q -111.5 -71.7 -112.3 -73.1 L -112.3 -73.1 L -112.3 -73.1 Q -113.1 -74.6 -115.7 -74.9 L -115.7 -74.9 L -121.6 -75.7 L -121.6 -75.7 Q -125.8 -76.3 -127.3 -78.9 L -127.3 -78.9 L -127.3 -78.9 Q -128.8 -81.6 -128.8 -86.5 L -128.8 -86.5 L -128.8 -86.5 Q -128.8 -91.5 -125.9 -94.5 L -125.9 -94.5 L -125.9 -94.5 Q -123 -97.6 -118 -97.6 L -118 -97.6 L -118 -97.6 Q -111.3 -97.6 -106.8 -95.2 L -106.8 -95.2 L -107.9 -91.1 L -107.9 -91.1 Q -113.7 -92.5 -116.9 -92.5 L -116.9 -92.5 L -116.9 -92.5 Q -120.1 -92.5 -121.6 -91.4 L -121.6 -91.4 L -121.6 -91.4 Q -123.1 -90.4 -123.1 -87.1 L -123.1 -87.1 L -123.1 -87.1 Q -123.1 -83.9 -122.4 -82.7 L -122.4 -82.7 L -122.4 -82.7 Q -121.8 -81.4 -119.1 -81 L -119.1 -81 L -113.3 -80.2 Z M -49.4 -61.2 L -49.4 -61.2 Q -51.5 -60 -55.2 -59.3 L -55.2 -59.3 L -55.2 -59.3 Q -59 -58.5 -61.7 -58.5 L -61.7 -58.5 L -61.7 -58.5 Q -64.5 -58.5 -66.4 -58.6 L -66.4 -58.6 L -66.4 -58.6 Q -68.3 -58.8 -69.8 -59.4 L -69.8 -59.4 L -69.8 -59.4 Q -71.3 -59.9 -72.5 -60.4 L -72.5 -60.4 L -72.5 -60.4 Q -73.6 -60.9 -74.5 -62.1 L -74.5 -62.1 L -74.5 -62.1 Q -75.4 -63.4 -76 -64.2 L -76 -64.2 L -76 -64.2 Q -76.6 -65.1 -77 -67 L -77 -67 L -77 -67 Q -77.4 -69 -77.6 -70.3 L -77.6 -70.3 L -77.6 -70.3 Q -77.8 -71.6 -77.9 -74.4 L -77.9 -74.4 L -77.9 -74.4 Q -78 -79.9 -78 -84.7 L -78 -84.7 L -78 -84.7 Q -78 -89.6 -77.9 -92 L -77.9 -92 L -77.9 -92 Q -77.9 -94.5 -77.6 -97.9 L -77.6 -97.9 L -77.6 -97.9 Q -77.4 -101.4 -76.7 -102.8 L -76.7 -102.8 L -76.7 -102.8 Q -76.1 -104.3 -75 -106.2 L -75 -106.2 L -75 -106.2 Q -73.9 -108.1 -72.2 -108.9 L -72.2 -108.9 L -72.2 -108.9 Q -67.6 -110.6 -62.1 -110.6 L -62.1 -110.6 L -62.1 -110.6 Q -56.5 -110.6 -51.3 -109 L -51.3 -109 L -52.4 -104.3 L -52.4 -104.3 Q -57.2 -105.5 -61 -105.5 L -61 -105.5 L -61 -105.5 Q -64.8 -105.5 -66.7 -105 L -66.7 -105 L -66.7 -105 Q -68.6 -104.5 -69.6 -103.8 L -69.6 -103.8 L -69.6 -103.8 Q -70.7 -103.2 -71.1 -101.7 L -71.1 -101.7 L -71.1 -101.7 Q -71.6 -100.3 -71.7 -99.2 L -71.7 -99.2 L -71.7 -99.2 Q -71.7 -98.2 -71.7 -96 L -71.7 -96 L -71.7 -73.2 L -71.7 -73.2 Q -71.7 -67.5 -70.6 -66.2 L -70.6 -66.2 L -70.6 -66.2 Q -68.7 -64.3 -66.6 -63.9 L -66.6 -63.9 L -66.6 -63.9 Q -64.4 -63.6 -61.4 -63.6 L -61.4 -63.6 L -61.4 -63.6 Q -58.3 -63.6 -55.2 -64.2 L -55.2 -64.2 L -55.2 -80.6 L -62 -80.6 L -62 -84.9 L -49.4 -84.9 L -49.4 -61.2 Z M -13.6 -86.3 L -13.6 -59.3 L -16.9 -59.3 L -17.8 -62.9 L -17.8 -62.9 Q -19.5 -60.9 -21.7 -59.9 L -21.7 -59.9 L -21.7 -59.9 Q -23.9 -58.8 -25.3 -58.6 L -25.3 -58.6 L -25.3 -58.6 Q -26.7 -58.5 -29.4 -58.5 L -29.4 -58.5 L -29.4 -58.5 Q -32 -58.5 -34 -59.4 L -34 -59.4 L -34 -59.4 Q -36 -60.3 -37 -62.2 L -37 -62.2 L -37 -62.2 Q -38.6 -65.2 -38.6 -70.3 L -38.6 -70.3 L -38.6 -70.3 Q -38.6 -76.8 -34.9 -78.8 L -34.9 -78.8 L -34.9 -78.8 Q -33.4 -79.5 -32.2 -79.9 L -32.2 -79.9 L -32.2 -79.9 Q -31 -80.3 -28.6 -80.6 L -28.6 -80.6 L -28.6 -80.6 Q -26.2 -80.8 -24.5 -80.8 L -24.5 -80.8 L -24.5 -80.8 Q -22.8 -80.9 -19.5 -80.9 L -19.5 -80.9 L -19.5 -86.3 L -19.5 -86.3 Q -19.5 -90.1 -21.1 -91.4 L -21.1 -91.4 L -21.1 -91.4 Q -22.7 -92.7 -26.9 -92.7 L -26.9 -92.7 L -26.9 -92.7 Q -31.1 -92.7 -36 -91.1 L -36 -91.1 L -37.1 -94.7 L -37.1 -94.7 Q -31.5 -97.5 -25.2 -97.5 L -25.2 -97.5 L -25.2 -97.5 Q -17.7 -97.5 -15.6 -94.5 L -15.6 -94.5 L -15.6 -94.5 Q -14.4 -92.8 -14 -91 L -14 -91 L -14 -91 Q -13.6 -89.2 -13.6 -86.3 L -13.6 -86.3 Z M -19.5 -69.4 L -19.5 -69.4 L -19.5 -76.8 L -19.5 -76.8 Q -26.9 -76.8 -28.3 -76.3 L -28.3 -76.3 L -28.3 -76.3 Q -29.7 -75.7 -30.8 -75.2 L -30.8 -75.2 L -30.8 -75.2 Q -32.7 -74.2 -32.7 -71.2 L -32.7 -71.2 L -32.7 -69.5 L -32.7 -69.5 Q -32.7 -66 -31.6 -64.6 L -31.6 -64.6 L -31.6 -64.6 Q -30.6 -63.1 -26.5 -63.1 L -26.5 -63.1 L -26.5 -63.1 Q -22.4 -63.1 -21 -64.8 L -21 -64.8 L -21 -64.8 Q -19.5 -66.4 -19.5 -69.4 Z M 4.5 -111.2 L 4.5 -59.3 L -1.4 -59.3 L -1.4 -111.2 L 4.5 -111.2 Z M 23.4 -111.2 L 23.4 -59.3 L 17.5 -59.3 L 17.5 -111.2 L 23.4 -111.2 Z M 41.2 -86.5 L 41.2 -86.5 L 41.2 -79.1 L 41.2 -79.1 Q 48.6 -79.1 50 -79.7 L 50 -79.7 L 50 -79.7 Q 51.4 -80.2 52.5 -80.8 L 52.5 -80.8 L 52.5 -80.8 Q 54.4 -81.8 54.4 -84.7 L 54.4 -84.7 L 54.4 -86.4 L 54.4 -86.4 Q 54.4 -89.9 53.3 -91.4 L 53.3 -91.4 L 53.3 -91.4 Q 52.2 -92.8 48.2 -92.8 L 48.2 -92.8 L 48.2 -92.8 Q 44.1 -92.8 42.7 -91.2 L 42.7 -91.2 L 42.7 -91.2 Q 41.2 -89.6 41.2 -86.5 Z M 41.9 -96.7 L 41.9 -96.7 L 41.9 -96.7 Q 43.1 -97.2 44.7 -97.4 L 44.7 -97.4 L 44.7 -97.4 Q 46.3 -97.6 49.2 -97.6 L 49.2 -97.6 L 49.2 -97.6 Q 52.1 -97.6 54.6 -96.8 L 54.6 -96.8 L 54.6 -96.8 Q 57.1 -96 58.3 -94.3 L 58.3 -94.3 L 58.3 -94.3 Q 59.5 -92.6 59.9 -90.8 L 59.9 -90.8 L 59.9 -90.8 Q 60.3 -89.1 60.3 -86.8 L 60.3 -86.8 L 60.3 -86.8 Q 60.3 -84.5 60 -83 L 60 -83 L 60 -83 Q 59.7 -81.6 59.3 -80.5 L 59.3 -80.5 L 59.3 -80.5 Q 58.9 -79.4 58 -78.6 L 58 -78.6 L 58 -78.6 Q 57.1 -77.8 56.4 -77.2 L 56.4 -77.2 L 56.4 -77.2 Q 55.6 -76.6 54.2 -76.2 L 54.2 -76.2 L 54.2 -76.2 Q 52.7 -75.8 51.6 -75.6 L 51.6 -75.6 L 51.6 -75.6 Q 50.5 -75.4 48.5 -75.2 L 48.5 -75.2 L 48.5 -75.2 Q 45.5 -75 41.2 -75 L 41.2 -75 L 41.2 -69.6 L 41.2 -69.6 Q 41.2 -65.9 42.8 -64.5 L 42.8 -64.5 L 42.8 -64.5 Q 44.4 -63.2 47.6 -63.2 L 47.6 -63.2 L 47.6 -63.2 Q 53.6 -63.2 58.4 -65.2 L 58.4 -65.2 L 59.5 -61.6 L 59.5 -61.6 Q 54.1 -58.5 47.6 -58.5 L 47.6 -58.5 L 47.6 -58.5 Q 44.1 -58.5 42 -59.2 L 42 -59.2 L 42 -59.2 Q 39.9 -60 39 -60.9 L 39 -60.9 L 39 -60.9 Q 38.1 -61.8 37.4 -62.6 L 37.4 -62.6 L 37.4 -62.6 Q 36.8 -63.4 36.4 -64.9 L 36.4 -64.9 L 36.4 -64.9 Q 36 -66.5 35.8 -67.6 L 35.8 -67.6 L 35.8 -67.6 Q 35.5 -68.7 35.5 -70.7 L 35.5 -70.7 L 35.5 -70.7 Q 35.3 -74.2 35.3 -77.2 L 35.3 -77.2 L 35.3 -81.5 L 35.3 -81.5 Q 35.3 -85.3 35.5 -87 L 35.5 -87 L 35.5 -87 Q 35.8 -88.6 36.1 -90.1 L 36.1 -90.1 L 36.1 -90.1 Q 36.4 -91.6 36.9 -92.3 L 36.9 -92.3 L 36.9 -92.3 Q 37.4 -93.1 38.1 -94.1 L 38.1 -94.1 L 38.1 -94.1 Q 38.8 -95.1 39.8 -95.6 L 39.8 -95.6 L 39.8 -95.6 Q 40.7 -96.1 41.9 -96.7 Z M 76.7 -88.5 L 76.7 -59.3 L 70.8 -59.3 L 70.8 -96.8 L 74 -96.8 L 75.1 -92.4 L 75.1 -92.4 Q 80.4 -97.5 87.7 -97.6 L 87.7 -97.6 L 87.1 -92.4 L 87.1 -92.4 Q 80.5 -92.4 76.7 -88.5 L 76.7 -88.5 Z M 90.3 -46.4 L 91.6 -50.5 L 91.6 -50.5 Q 93.6 -50.1 95.9 -50.1 L 95.9 -50.1 L 95.9 -50.1 Q 98.2 -50.1 99.9 -51.4 L 99.9 -51.4 L 99.9 -51.4 Q 101.6 -52.6 102.4 -55.9 L 102.4 -55.9 L 103.2 -59.3 L 99.1 -59.3 L 90.4 -96.8 L 96.2 -96.8 L 103.7 -63.2 L 104.1 -63.2 L 111.5 -96.8 L 117.3 -96.8 L 107.8 -56.1 L 107.8 -56.1 Q 106.6 -50.8 103.9 -48.1 L 103.9 -48.1 L 103.9 -48.1 Q 101.2 -45.4 95.3 -45.4 L 95.3 -45.4 L 95.3 -45.4 Q 92.6 -45.4 90.3 -46.4 L 90.3 -46.4 Z" fill="#000000"></path></g></g><style>text {
  font-size: 64px;
  font-family: Arial Black;
  dominant-baseline: central;
  text-anchor: middle;
}</style></svg>